<svg width="26" height="23" viewBox="0 0 26 23" fill="none" xmlns="http://www.w3.org/2000/svg">
<rect x="0.722222" y="0.722222" width="24.5556" height="20.9444" rx="3.61111" stroke="#23354A" stroke-width="1.44444"/>
<path d="M7.87216 14.1567C7.25201 14.1567 6.72287 14.0488 6.28472 13.8331C5.85331 13.6174 5.51627 13.3073 5.27361 12.9029C5.03768 12.4917 4.90961 12.003 4.88938 11.4368C4.88264 11.1469 4.87927 10.8369 4.87927 10.5066C4.87927 10.1695 4.88264 9.85272 4.88938 9.55612C4.90961 8.99664 5.03768 8.51805 5.27361 8.12035C5.51627 7.72264 5.85668 7.41594 6.29483 7.20023C6.73972 6.98453 7.26549 6.87668 7.87216 6.87668C8.36424 6.87668 8.79564 6.94409 9.16638 7.0789C9.53712 7.20697 9.84383 7.37549 10.0865 7.58446C10.3359 7.78668 10.5213 8.00575 10.6426 8.24168C10.7707 8.4776 10.8381 8.69668 10.8448 8.8989C10.8516 8.95957 10.8347 9.01012 10.7943 9.05057C10.7538 9.09101 10.6999 9.11123 10.6325 9.11123H9.59105C9.52364 9.11123 9.47309 9.09775 9.43938 9.07079C9.40568 9.04383 9.37535 9.00338 9.34838 8.94946C9.29446 8.8079 9.2102 8.66972 9.09561 8.5349C8.98101 8.39335 8.82598 8.27538 8.63049 8.18101C8.43501 8.08664 8.18224 8.03946 7.87216 8.03946C7.41379 8.03946 7.04642 8.16079 6.77005 8.40346C6.50042 8.64612 6.35549 9.0472 6.33527 9.60668C6.31505 10.1931 6.31505 10.7863 6.33527 11.3862C6.35549 11.9592 6.50379 12.3704 6.78016 12.6198C7.06327 12.8692 7.43401 12.9939 7.89238 12.9939C8.19572 12.9939 8.46535 12.94 8.70127 12.8321C8.94394 12.7243 9.13268 12.5558 9.26749 12.3266C9.40905 12.0974 9.47983 11.8042 9.47983 11.4469V11.1335H8.24627C8.17886 11.1335 8.12157 11.1099 8.07438 11.0627C8.0272 11.0155 8.00361 10.9548 8.00361 10.8807V10.3448C8.00361 10.2706 8.0272 10.21 8.07438 10.1628C8.12157 10.1156 8.17886 10.092 8.24627 10.092H10.6628C10.737 10.092 10.7943 10.1156 10.8347 10.1628C10.8819 10.21 10.9055 10.2706 10.9055 10.3448V11.4065C10.9055 11.9727 10.7808 12.4614 10.5314 12.8726C10.2887 13.2838 9.9382 13.6006 9.47983 13.823C9.0282 14.0455 8.49231 14.1567 7.87216 14.1567Z" fill="#23354A"/>
<path d="M12.4444 14.0556C12.377 14.0556 12.3197 14.032 12.2725 13.9848C12.2253 13.9376 12.2017 13.8803 12.2017 13.8129V7.22046C12.2017 7.15305 12.2253 7.09575 12.2725 7.04857C12.3197 7.00138 12.377 6.97779 12.4444 6.97779H13.3948C13.469 6.97779 13.5262 7.00138 13.5667 7.04857C13.6139 7.09575 13.6375 7.15305 13.6375 7.22046V13.8129C13.6375 13.8803 13.6139 13.9376 13.5667 13.9848C13.5262 14.032 13.469 14.0556 13.3948 14.0556H12.4444Z" fill="#23354A"/>
<path d="M15.4658 14.0556C15.3984 14.0556 15.3411 14.032 15.294 13.9848C15.2468 13.9376 15.2232 13.8803 15.2232 13.8129V7.23057C15.2232 7.15642 15.2468 7.09575 15.294 7.04857C15.3411 7.00138 15.3984 6.97779 15.4658 6.97779H19.8541C19.9282 6.97779 19.9889 7.00138 20.0361 7.04857C20.0832 7.09575 20.1068 7.15642 20.1068 7.23057V7.93835C20.1068 8.01249 20.0832 8.07316 20.0361 8.12035C19.9889 8.16079 19.9282 8.18101 19.8541 8.18101H16.6084V10.1021H19.6518C19.726 10.1021 19.7867 10.1257 19.8338 10.1729C19.881 10.2201 19.9046 10.2808 19.9046 10.3549V11.0627C19.9046 11.1301 19.881 11.1874 19.8338 11.2346C19.7867 11.2818 19.726 11.3053 19.6518 11.3053H16.6084V13.8129C16.6084 13.8803 16.5848 13.9376 16.5376 13.9848C16.4904 14.032 16.4298 14.0556 16.3556 14.0556H15.4658Z" fill="#23354A"/>
</svg>
