<svg width="43" height="43" viewBox="0 0 43 43" fill="none" xmlns="http://www.w3.org/2000/svg">
<circle cx="21.2355" cy="21.2355" r="20.5392" fill="#73CFF4" stroke="#FFE590" stroke-width="1.39249"/>
<g clip-path="url(#clip0_219_9192)">
<path d="M29.6675 23.3639L29.1766 20.7841C29.3902 21.617 29.5506 22.4626 29.6568 23.3159L29.6675 23.3639Z" fill="#430605"/>
<path d="M29.9476 28.3154C29.9463 28.3377 29.9463 28.3599 29.9476 28.3821V28.4035C29.6808 30.2923 28.8805 32.005 28.2055 33.7578C28.089 34.0739 28.0524 34.4138 28.0988 34.7475C28.1726 35.65 28.1851 36.5565 28.1362 37.4607C28.1362 37.8715 28.0348 38.261 27.6213 38.3837C27.563 38.4023 27.5032 38.4157 27.4425 38.4237C23.7965 38.4273 20.1612 38.4291 16.5366 38.4291C16.2698 38.4291 15.9683 38.5278 15.7149 38.3357C15.3681 38.1143 15.3521 37.7888 15.4614 37.4473C15.9577 35.884 15.6482 34.5287 14.6771 33.1788C13.8324 31.9408 13.1096 30.6239 12.5189 29.2465C12.0012 28.0564 11.7674 26.7622 11.8359 25.4662C11.8184 25.1282 11.8843 24.791 12.028 24.4845C13.3405 22.3022 13.0764 19.7918 13.5086 17.4335C13.7754 15.9369 13.8367 14.3949 14.397 12.9569C14.4638 12.736 14.4535 12.4989 14.3676 12.2846C14.117 11.2026 13.7971 10.1377 13.4099 9.09661C13.1077 8.34363 13.0876 7.50685 13.3533 6.74023C13.6189 5.9736 14.1525 5.3287 14.8558 4.92418C15.2603 4.66046 15.7422 4.54167 16.2229 4.58722C16.7036 4.63277 17.1546 4.83996 17.5023 5.17495C17.8918 5.52443 18.0065 5.39638 18.1933 5.03889C18.3444 4.76836 18.5119 4.50732 18.6948 4.25723C19.3057 3.36085 20.1434 3.21412 20.9678 3.94776C21.4383 4.33961 21.7937 4.85173 21.9961 5.42957C22.1986 6.00741 22.2406 6.62935 22.1176 7.22915C21.7969 8.80247 21.2172 10.3116 20.4022 11.6951C19.9754 12.4687 20.3168 13.0823 20.4822 13.7599C20.5463 14.0267 20.749 13.9413 20.9278 13.9413C21.2372 13.9413 21.544 13.92 21.8535 13.9253C24.1185 13.9707 25.2789 14.8617 25.8552 17.0413C25.8734 17.176 25.9329 17.3018 26.0256 17.4012C26.1183 17.5006 26.2396 17.5687 26.3727 17.5962C27.7627 18.0177 28.627 18.9728 29.0566 20.3574C29.0992 20.4997 29.1393 20.6411 29.1766 20.7816L29.6648 23.3613L29.8302 24.247C29.8489 24.4445 29.8676 24.6659 29.8862 24.9033C29.8862 25.018 29.9049 25.1381 29.9156 25.2581C29.9263 25.3782 29.9156 25.4609 29.9343 25.5649C30.0152 26.4798 30.0197 27.3998 29.9476 28.3154Z" fill="#1E2019"/>
<path d="M15.8668 33.5226C14.5916 31.327 13.0176 29.2781 12.6975 26.6237C12.6129 26.0637 12.6401 25.4924 12.7775 24.943C12.9149 24.3935 13.1597 23.8767 13.4978 23.4223C14.3791 22.2717 15.3458 21.189 16.3897 20.1836C17.8496 18.7912 19.1068 17.2008 20.1246 15.4589C20.4234 14.9254 20.6582 15.0348 20.9703 15.3869C21.8267 16.3473 21.9307 17.4811 21.6399 18.6603C21.2424 20.277 20.322 21.6216 19.335 22.9288C18.7881 23.6464 18.8014 23.6651 19.6284 24.0679C20.2077 24.366 20.6714 24.8485 20.9463 25.4392C21.7342 26.852 22.0166 28.4914 21.7466 30.0865C21.6933 30.396 21.5866 30.7001 21.8987 30.9348C22.2802 31.1376 22.699 31.0336 23.1046 31.1083C23.5101 31.183 23.6381 30.8628 23.7848 30.5747C24.1766 29.8163 24.6224 29.087 25.1187 28.3924C25.5438 27.7749 26.1063 27.2644 26.7621 26.9011C27.5331 26.4903 27.8692 25.6473 27.7225 24.7135C27.6391 24.4919 27.5896 24.259 27.5758 24.0226C27.6852 23.7558 27.8079 23.5104 27.9013 23.2436C27.9946 22.9768 27.984 22.7714 27.7092 22.6593C27.6554 22.6363 27.5973 22.625 27.5388 22.6262C27.4803 22.6274 27.4227 22.641 27.3699 22.6663C27.3171 22.6916 27.2703 22.7278 27.2327 22.7726C27.195 22.8174 27.1674 22.8698 27.1516 22.9261C26.8848 23.5077 26.618 24.0866 26.3753 24.6789C26.1752 25.1777 26.0338 25.7033 25.639 26.0981C25.2398 26.1134 24.8473 25.9919 24.5266 25.7537C24.2059 25.5155 23.9762 25.1749 23.8755 24.7882C25.1508 23.0915 25.2735 21.0533 25.5829 19.0605C25.7137 18.2228 25.7537 18.1828 26.53 18.5269C26.9605 18.7114 27.3411 18.9955 27.6403 19.3559C27.9394 19.7163 28.1487 20.1427 28.2507 20.5998C29.1071 24.1906 29.5846 27.7788 28.016 31.3217C27.6532 32.1514 27.3277 32.9944 26.9862 33.8321C26.7461 34.2776 26.2606 34.3656 25.8791 34.5977C25.7537 34.6751 25.5723 34.7205 25.5909 34.9099C25.6096 35.0993 25.783 35.1233 25.9164 35.1953C26.2526 35.3767 26.6821 35.2594 26.9835 35.5315C27.1169 37.4363 27.1169 37.4363 25.2708 37.4363C22.5283 37.4363 19.7831 37.4176 17.0406 37.4363C16.395 37.4363 16.2163 37.2602 16.411 36.6519C16.4945 36.3303 16.5604 36.0043 16.6085 35.6755C16.9126 35.4088 17.2834 35.4754 17.6356 35.4648C18.7027 35.4381 19.7698 35.5208 20.8583 35.3501C19.6454 35.0407 18.4503 34.6658 17.2781 34.2269C16.761 34.1003 16.2788 33.8597 15.8668 33.5226Z" fill="#F4D980"/>
<path d="M13.9916 20.6426C14.3784 17.3105 14.5251 13.9544 16.2645 10.9051C17.3583 8.98161 17.9959 6.80736 19.2391 4.94523C19.7727 4.1609 20.1649 4.14489 20.7491 4.91855C21.0397 5.30193 21.2316 5.75087 21.3079 6.22585C21.3842 6.70083 21.3426 7.18728 21.1866 7.64238C20.7239 9.20676 20.0745 10.7098 19.2525 12.1189C18.6311 13.134 18.3507 14.3212 18.4521 15.5071C18.4895 15.9259 18.5989 16.3981 18.2227 16.7556C17.0622 18.0175 15.7737 19.1566 14.5865 20.3838C14.4291 20.5545 14.269 20.7439 13.9916 20.6426Z" fill="#F4D980"/>
<path d="M20.9359 22.1851C21.4988 21.1446 22.1231 20.1362 22.4245 18.9837C22.8087 17.5004 22.6166 16.1265 21.6776 14.8806C22.0964 14.771 22.536 14.7675 22.9565 14.8705C23.377 14.9735 23.7652 15.1797 24.086 15.4705C24.4067 15.7614 24.6499 16.1276 24.7935 16.536C24.937 16.9445 24.9765 17.3823 24.9083 17.8099C24.6415 19.5626 24.5588 21.3554 23.9025 23.0334C23.8091 23.2708 23.6757 23.4923 23.5637 23.7217C22.9314 22.7906 21.987 22.3958 20.9359 22.1851Z" fill="#F4D980"/>
<path d="M14.4451 9.308C13.6848 7.9741 13.9382 6.6402 15.1201 5.75182C15.3647 5.53098 15.6824 5.40851 16.0119 5.40802C16.3415 5.40753 16.6596 5.52905 16.9048 5.74915C17.241 6.01593 17.4677 6.35474 17.2436 6.81627C16.8781 7.58193 16.518 8.35026 16.1525 9.11858C15.4162 9.68682 15.1121 9.7215 14.4451 9.308Z" fill="#F4D980"/>
<path opacity="0.2" d="M27.5761 24.0223C28.171 24.8893 28.0403 26.402 27.1546 26.8501C25.5032 27.6825 24.7536 29.2031 23.9266 30.6811C23.4917 31.4521 22.6354 31.5695 21.8804 30.9159C22.3019 30.9345 22.4513 30.6891 22.5313 30.3103C22.8541 28.7923 22.59 27.3357 22.0911 25.8711C22.4006 25.9164 22.4566 26.1939 22.6247 26.3486C22.7928 26.5033 22.9768 26.7274 23.1743 26.8822C24.4068 27.9413 25.6073 27.7572 26.509 26.4233C26.8141 25.943 27.0478 25.4209 27.2026 24.8733C27.3039 24.58 27.4288 24.2954 27.5761 24.0223Z" fill="#1E2019"/>
<path opacity="0.2" d="M20.936 22.1846C22.1472 22.1205 23.1396 22.4273 23.5638 23.7212C23.297 24.3482 22.7287 24.5829 22.1392 24.7883C21.9997 24.8567 21.8389 24.867 21.6919 24.817C21.5449 24.767 21.4237 24.6607 21.3548 24.5216C21.2508 24.3455 21.088 24.2041 20.9813 24.0334C20.7706 23.7186 20.181 23.6225 20.237 23.233C20.293 22.8435 20.6905 22.5367 20.936 22.1846Z" fill="#1E2019"/>
<path opacity="0.2" d="M15.8671 33.5233C16.9342 33.8914 18.0013 34.2516 19.0684 34.6331C19.89 34.9368 20.7543 35.1097 21.6295 35.1453C21.4721 35.3355 21.2717 35.4855 21.0449 35.5829C20.818 35.6804 20.5713 35.7224 20.325 35.7055C19.0924 35.7055 17.8599 35.7055 16.6274 35.7055C16.8755 34.8011 16.1178 34.2516 15.8671 33.5233Z" fill="#1E2019"/>
<path opacity="0.2" d="M13.9916 20.6431C14.8986 19.9228 15.6296 19.0211 16.478 18.2421C17.0409 17.7272 17.6331 17.247 18.2147 16.7508C17.353 18.2154 16.0058 19.2505 14.912 20.5097C14.6132 20.8539 14.2584 21.1473 13.9142 21.4781C13.8405 21.1994 13.8679 20.9035 13.9916 20.6431Z" fill="#1E2019"/>
<path opacity="0.2" d="M23.8788 24.7967C24.3004 25.4213 24.9224 25.8834 25.6422 26.1066C25.4641 26.3039 25.2375 26.4513 24.9848 26.5339C24.7322 26.6166 24.4623 26.6317 24.202 26.5778C23.9417 26.5238 23.7001 26.4027 23.5011 26.2264C23.3021 26.0502 23.1527 25.8249 23.0677 25.573C22.9904 25.3569 23.1158 25.3062 23.2412 25.2209L23.8788 24.7967Z" fill="#1E2019"/>
<path opacity="0.2" d="M26.9944 35.5477C26.4588 35.6075 25.9188 35.4833 25.4631 35.1955C25.1296 34.9661 25.1056 34.7927 25.4845 34.6059C25.9887 34.3551 26.4875 34.1017 26.9891 33.8483C26.9918 34.4272 26.9918 34.9821 26.9944 35.5477Z" fill="#1E2019"/>
<path opacity="0.2" d="M14.4453 9.30792C15.0402 9.51334 15.5871 9.30792 16.1394 9.12384C15.6965 10.4284 15.4511 10.8766 14.9815 11.2421L14.4453 9.30792Z" fill="#1E2019"/>
<path opacity="0.2" d="M19.2844 15.059C19.2844 14.4934 19.1377 14.0372 19.4739 13.5837C19.7967 14.0879 19.8607 14.5254 19.2844 15.059Z" fill="#1E2019"/>
</g>
<defs>
<clipPath id="clip0_219_9192">
<rect width="18.165" height="34.9615" fill="white" transform="translate(11.8359 3.48047)"/>
</clipPath>
</defs>
</svg>
